<svg width="77" height="45" viewBox="0 0 77 45" fill="none" xmlns="http://www.w3.org/2000/svg">
<path d="M17.056 5.08487C19.189 10.3522 21.8922 15.3185 25.4525 19.7768C25.9247 20.3701 26.52 20.8976 27.1471 21.327C28.063 21.956 28.9271 21.735 29.2996 20.6872C29.6935 19.5877 30.055 17.3595 30.0764 16.2049C30.1352 13.1881 30.0676 11.2109 29.9056 8.1978C29.8005 6.26794 29.1144 4.5734 26.2757 4.06194C25.399 3.90336 25.3176 3.18176 25.8808 2.46192C27.0533 0.963262 28.6867 0.72442 30.458 0.6299C33.3288 0.474839 36.2101 0.601387 39.0844 0.6299C40.2552 0.640641 41.433 0.734967 42.586 0.986306C44.0899 1.3142 44.8953 2.36916 45.1431 3.83735C45.2714 4.59469 45.3374 5.37331 45.3195 6.13964C45.2447 9.43263 45.0861 12.7239 45.0486 16.0151C45.0326 17.3069 45.1269 18.631 45.4032 19.8891C45.7899 21.6424 46.9837 22.0826 48.2045 20.8157C49.7547 19.2067 51.1215 17.3962 52.4044 15.5573C54.7352 12.2126 56.476 8.5419 57.9747 4.75717C58.7498 2.80426 59.3433 2.3801 61.444 2.37482C65.3928 2.36584 69.3416 2.36232 73.2903 2.37482C73.9907 2.37834 74.723 2.44435 75.3841 2.65467C76.4568 2.99682 76.8827 3.87172 76.6314 4.98195C76.0451 7.58361 74.6392 9.79489 73.1335 11.9208C70.7172 15.3314 68.1851 18.6601 65.7119 22.0314C65.3965 22.4609 65.1186 22.9188 64.86 23.3838C63.9351 25.0553 63.9994 25.9925 65.3483 27.3841C67.4955 29.5991 69.7943 31.6713 71.8737 33.9469C73.3849 35.6024 74.7835 37.3984 75.9811 39.289C77.4957 41.6804 76.5601 43.9327 73.7305 44.3336C71.9505 44.5849 63.2549 44.3355 62.8056 44.3336C60.4678 44.323 58.4186 43.5122 56.7684 41.9245C54.933 40.1569 53.265 38.2181 51.5027 36.3737C50.9718 35.8178 50.405 35.285 49.794 34.8198C48.3523 33.7203 46.9374 33.9645 46.2639 35.6574C45.6884 37.1116 45.1912 40.9301 45.1679 41.2562C45.0468 42.9615 43.9616 44.0485 42.0513 44.1535C36.5363 44.4529 31.1921 43.8381 26.2136 41.1707C21.9939 38.9112 18.6244 35.7162 15.7056 31.9903C11.069 26.0722 7.40671 19.5668 4.06314 12.8705C3.89226 12.5282 0.505723 5.32195 0.414718 4.98156C0.112213 3.84184 0.394407 2.7531 1.35739 2.37834C1.95771 2.14477 13.1233 2.37756 13.309 2.38752C15.0906 2.48399 16.3055 3.23566 17.056 5.08487Z" fill="white"/>
</svg>
