<svg width="67" height="67" viewBox="0 0 67 67" fill="none" xmlns="http://www.w3.org/2000/svg">
<path d="M20.3639 63.6011C5.83853 57.5313 -3.61667 40.2332 2.39653 22.6647C8.34489 5.28555 27.5873 -3.81558 44.9135 2.61847C62.2888 9.07087 70.8828 28.2431 64.1468 45.4301C57.1732 63.2234 38.4775 69.5188 24.4599 65.0797C25.5078 62.4915 26.7003 59.9376 27.5738 57.2792C28.451 54.6091 29.0103 51.8348 29.6683 49.265C30.2346 49.7415 30.8037 50.2467 31.3997 50.7178C34.4972 53.1657 38.0015 53.4034 41.673 52.5207C45.5743 51.5827 48.6574 49.3707 50.9405 46.1191C54.802 40.6197 56.1647 34.3979 55.2314 27.8504C54.2663 21.0801 50.2576 16.1806 43.9729 13.7135C34.5039 9.99635 25.5271 11.2478 17.7515 18.0605C11.7713 23.3001 9.76094 32.1827 12.6374 39.098C13.6343 41.495 15.2099 43.3762 17.5937 44.5066C18.8017 45.0793 19.3146 44.8458 19.6641 43.584C19.6901 43.4901 19.7217 43.3975 19.7561 43.3063C20.4256 41.5409 20.2693 40.0895 19.0779 38.3852C16.9066 35.2789 17.2939 31.683 18.3414 28.2377C20.3279 21.7042 26.1652 17.3449 33.0109 17.2817C34.8447 17.2647 36.7323 17.4219 38.5083 17.8552C43.7907 19.144 47.2015 23.2292 47.5432 28.6456C47.8174 32.9893 47.1386 37.2089 45.2501 41.1753C44.3151 43.1389 43.081 44.885 41.2443 46.121C39.5189 47.282 37.6322 47.7499 35.585 47.215C32.7644 46.478 31.1632 43.9049 31.8766 41.0816C32.616 38.1551 33.5727 35.2834 34.298 32.354C34.6046 31.1151 34.7658 29.7695 34.64 28.5076C34.2969 25.0703 31.0492 23.4673 28.0132 25.1454C25.8867 26.3209 24.8628 28.2855 24.3878 30.5587C23.8986 32.9006 24.1355 35.2088 24.8975 37.4796C25.0506 37.936 25.0733 38.4998 24.9653 38.9705C23.586 44.9852 22.1107 50.9789 20.8044 57.0093C20.4232 58.769 20.4939 60.6274 20.3672 62.4413C20.3432 62.7885 20.3639 63.1392 20.3639 63.6011Z" fill="white"/>
</svg>
